<svg id="Objects" xmlns="http://www.w3.org/2000/svg" xmlns:xlink="http://www.w3.org/1999/xlink" viewBox="0 0 386.73 250.71"><defs><style>.cls-1{fill:none;}.cls-2,.cls-7{fill:#292929;}.cls-3{fill:#f1f1f1;}.cls-4{clip-path:url(#clip-path);}.cls-5{fill:#fff;}.cls-6{opacity:0.2;}.cls-7{opacity:0.1;}.cls-8{fill:#1a1a1a;}</style><clipPath id="clip-path" transform="translate(-0.43 -18.28)"><path class="cls-1" d="M193.76,251.22c-40.35-20.53-85.09-45.79-93.1-54.14V37.28a10,10,0,0,1,10-10H276.87a10,10,0,0,1,10,10v159.8C278.86,205.43,234.12,230.69,193.76,251.22Z"/></clipPath></defs><title>logo2</title><path class="cls-2" d="M295.87,199.3c0,10.5-102.11,62-102.11,62s-102.1-51.51-102.1-62v-162a19,19,0,0,1,19-19H276.87a19,19,0,0,1,19,19Z" transform="translate(-0.43 -18.28)"/><path class="cls-3" d="M193.76,251.22c-40.35-20.53-85.09-45.79-93.1-54.14V37.28a10,10,0,0,1,10-10H276.87a10,10,0,0,1,10,10v159.8C278.86,205.43,234.12,230.69,193.76,251.22Z" transform="translate(-0.43 -18.28)"/><g class="cls-4"><path class="cls-2" d="M266.62,196.13a72.86,72.86,0,1,1-72.86-72.85A72.86,72.86,0,0,1,266.62,196.13Z" transform="translate(-0.43 -18.28)"/><path class="cls-5" d="M130.14,210.92a65.32,65.32,0,1,1,78.41,48.84A65.32,65.32,0,0,1,130.14,210.92Z" transform="translate(-0.43 -18.28)"/><polygon class="cls-2" points="204.87 170.02 177.04 187.29 176.73 186.8 204.56 169.52 204.87 170.02 204.87 170.02"/><path class="cls-2" d="M206.8,163.15h0l-.35.47a103.59,103.59,0,0,0-8.8-6h0A72.13,72.13,0,0,0,179,149.78l-.16-.71h.27c13.77,3,27.68,14.06,27.7,14.07Z" transform="translate(-0.43 -18.28)"/><path class="cls-2" d="M158.1,161.57a79.76,79.76,0,0,0-2.61,23.2h0a61.88,61.88,0,0,0,1,9.78h0l-.57.12a78.26,78.26,0,0,1,1.62-33.25h0l.56.15Z" transform="translate(-0.43 -18.28)"/><path class="cls-2" d="M228.57,201.78c3.08,13.28-.71,28.56-.71,28.58h0l-.56-.14a74.15,74.15,0,0,0,1.5-9.24h0a59.92,59.92,0,0,0-.79-19.06h0q-.31-1.41-.75-2.76h0l.55-.18c.3.92.55,1.86.77,2.8Z" transform="translate(-0.43 -18.28)"/><path class="cls-2" d="M194.73,240.08a83,83,0,0,0,10.26,3.6h0l-.15.57s-18.27-4.77-27.85-14.66h0l.42-.41c4.69,4.85,11.59,8.49,17.32,10.9Z" transform="translate(-0.43 -18.28)"/><path class="cls-2" d="M229.28,144.16a33.67,33.67,0,0,1-.85,17h0l-.55-.19a30.19,30.19,0,0,0,1.17-5.1h0a31.32,31.32,0,0,0-.34-11.59h0c-.16-.7-.35-1.4-.58-2.11h0l.55-.18a21.75,21.75,0,0,1,.6,2.16Z" transform="translate(-0.43 -18.28)"/><path class="cls-2" d="M140.09,208.85a19.54,19.54,0,0,0,4.53,1.39h0l-.07.58s-7.55-1-14.73-8.42h0l.42-.41a30,30,0,0,0,9.85,6.86Z" transform="translate(-0.43 -18.28)"/><path class="cls-2" d="M156.3,231.88a49.14,49.14,0,0,0,1.23,14.7h0c.21.92.46,1.86.74,2.81h0l-.28.08c-.28-1-.53-1.9-.74-2.82h0a49.47,49.47,0,0,1-1.25-14.8h0l.3,0Z" transform="translate(-0.43 -18.28)"/><path class="cls-2" d="M257.11,190.84l-.43.4c-1.31-1.4-5.05-3.39-8.42-5h0c-3.38-1.59-6.4-2.81-6.41-2.81h0l.22-.54s12.12,4.85,15,7.91Z" transform="translate(-0.43 -18.28)"/><path class="cls-2" d="M257.94,209.19c-6,19.47-18.41,27-18.43,27h0l-.16-.25a34.61,34.61,0,0,0,6.91-6.16h0a55.4,55.4,0,0,0,11.4-20.7h0l.28.08Z" transform="translate(-0.43 -18.28)"/><path class="cls-5" d="M204.41,256s-15.22,4.74-30.7,2.33c0,0,17.71,3.39,30.87-1.57Z" transform="translate(-0.43 -18.28)"/><path class="cls-2" d="M146.89,157.53s-5.24,1.57-10,7.83c0,0,2.6-4.86,10-9Z" transform="translate(-0.43 -18.28)"/><path class="cls-2" d="M179.72,138.54s5.52-3.84,16.36-7c0,0-10.65,2-16.92,6Z" transform="translate(-0.43 -18.28)"/><path class="cls-2" d="M241.57,235c-4.7,10.56-16.94,19-16.94,19-11.92,4.43-21.33,3.3-21.33,3.3l.37-13.91c10.76-3.69,24.47-14.49,24.47-14.49Z" transform="translate(-0.43 -18.28)"/><path class="cls-2" d="M228.54,202.13S209.43,190.55,204.06,189c0,0,1.52-20.18.86-26.43,0,0,13.34-5.51,24.19-3.62a61.44,61.44,0,0,1,14.4,24.89S235.43,197.33,228.54,202.13Z" transform="translate(-0.43 -18.28)"/><path class="cls-2" d="M181,150.1s-16.36,5.41-23.95,15c0,0-6-5-11.71-7.29,0,0,7.08-13.87,14.47-17.72a45.81,45.81,0,0,1,22.46-3.48A43,43,0,0,0,181,150.1Z" transform="translate(-0.43 -18.28)"/><path class="cls-2" d="M179.14,230.83s-.35-18.74.25-26.49c0,0-16.09-8.07-23.59-12.74,0,0-12.4,12.09-12.94,18.43,0,0,2.66,14,13.23,24.16C156.09,234.19,166.87,237.49,179.14,230.83Z" transform="translate(-0.43 -18.28)"/><path class="cls-2" d="M177.88,230s-.33-17.8.24-25.16c0,0-15.29-7.68-22.41-12.11,0,0-11.79,11.49-12.29,17.5,0,0,2.52,13.31,12.56,23C156,233.23,166.22,236.36,177.88,230Z" transform="translate(-0.43 -18.28)"/><path class="cls-2" d="M257.3,212.24a59.3,59.3,0,0,0,.3-30.94c0-.1-.05-.21-.08-.32-.2,3-.69,7.24-1.87,9.45C255.65,190.43,258.59,203.09,257.3,212.24Z" transform="translate(-0.43 -18.28)"/><path class="cls-2" d="M228.83,144.8a37,37,0,0,1,8.78,2.63A65.65,65.65,0,0,0,201.36,131C208.6,132.67,221.4,136.58,228.83,144.8Z" transform="translate(-0.43 -18.28)"/><path class="cls-2" d="M129,185.83a65.36,65.36,0,0,0,.62,23.86A15.65,15.65,0,0,1,131,203,109.12,109.12,0,0,1,129,185.83Z" transform="translate(-0.43 -18.28)"/><path class="cls-2" d="M157.7,248c-4.73-.66-10.44-5.84-14.35-10A65.82,65.82,0,0,0,176,259.24C167,255.51,157.7,248,157.7,248Z" transform="translate(-0.43 -18.28)"/><g class="cls-6"><path class="cls-2" d="M200.78,189.72l-19.36,12a5.66,5.66,0,0,1-5.07.17l-17.2-9.09c-1.43-.75-1.39-.83.09-.17L176,200.11a6.74,6.74,0,0,0,5.25-.18l19.43-10.37C202.11,188.8,202.15,188.87,200.78,189.72Z" transform="translate(-0.43 -18.28)"/><path class="cls-2" d="M229.35,202.4s2.62,17.11-.94,26.34l12.68,5.47-11.29-5.94A63.14,63.14,0,0,0,229.35,202.4Z" transform="translate(-0.43 -18.28)"/><path class="cls-2" d="M241.78,235.2s-3.07,8.57-13.82,16.58C228,251.78,238.07,246.18,241.78,235.2Z" transform="translate(-0.43 -18.28)"/><path class="cls-2" d="M205.63,161.7s-12.51-9.86-24.24-12.54c0,0-.63-4.41,1.06-11.81,0,0-.89,7.17-.25,11.22C182.2,148.57,193.81,150.93,205.63,161.7Z" transform="translate(-0.43 -18.28)"/><path class="cls-2" d="M157.48,165.18a86,86,0,0,0-1,25.92s-.2-16.39,1.41-23.68a8.1,8.1,0,0,1,1.73-3.18,69.11,69.11,0,0,1,21.13-13.47A52.67,52.67,0,0,0,157.48,165.18Z" transform="translate(-0.43 -18.28)"/><path class="cls-2" d="M155.11,191.86s-11.1,10.39-12.46,17.46C142.65,209.32,143.22,200.78,155.11,191.86Z" transform="translate(-0.43 -18.28)"/></g><path class="cls-7" d="M257.39,181.35a65.27,65.27,0,0,0-43.72-47.43,73.51,73.51,0,0,1-58,115.27,65.3,65.3,0,0,0,101.7-67.84Z" transform="translate(-0.43 -18.28)"/></g><path class="cls-2" d="M93.66,143.09a769.69,769.69,0,0,0-79.93,14.79q8.77-16.75,18.52-33.32Q16.76,113.22.43,102.48A826,826,0,0,1,86.27,86.6Q90,114.85,93.66,143.09Z" transform="translate(-0.43 -18.28)"/><path class="cls-8" d="M93.66,143.09q-15.94-11.43-32.82-22.18Q56.1,92.83,51.35,64.73,69.27,75.31,86.27,86.6,90,114.85,93.66,143.09Z" transform="translate(-0.43 -18.28)"/><path class="cls-2" d="M293.92,143.09a769.39,769.39,0,0,1,79.94,14.79q-8.78-16.75-18.52-33.32,15.5-11.34,31.82-22.08A826.53,826.53,0,0,0,301.32,86.6Q297.63,114.85,293.92,143.09Z" transform="translate(-0.43 -18.28)"/><path class="cls-8" d="M293.92,143.09q16-11.43,32.83-22.18,4.74-28.08,9.49-56.18Q318.32,75.31,301.32,86.6,297.63,114.85,293.92,143.09Z" transform="translate(-0.43 -18.28)"/><path class="cls-2" d="M326.69,120.9a798.26,798.26,0,0,0-265.85,0Q56.1,92.83,51.35,64.73a855.24,855.24,0,0,1,284.82,0Z" transform="translate(-0.43 -18.28)"/><path class="cls-3" d="M87.54,89.16l-5.39.71q.64,4.69,1.28,9.39l-2.58.36-3-21.68q4.73-.66,9.45-1.27c.1.74.19,1.47.29,2.2q-3.41.43-6.79.9l1.08,7.9L87.26,87C87.35,87.69,87.45,88.42,87.54,89.16Z" transform="translate(-0.43 -18.28)"/><path class="cls-3" d="M94.11,77.08A5.31,5.31,0,0,1,98,75.15a5.38,5.38,0,0,1,4.25,1A5.56,5.56,0,0,1,104.08,80q.61,5.63,1.22,11.25a5.72,5.72,0,0,1-.93,4.16,6.21,6.21,0,0,1-7.94.92,5.71,5.71,0,0,1-1.84-3.84q-.69-5.62-1.37-11.24A5.65,5.65,0,0,1,94.11,77.08Zm4,17.48a2.64,2.64,0,0,0,2.16.57q2.76-.31,2.41-3.46-.64-5.74-1.28-11.5a3.5,3.5,0,0,0-1-2.23,2.61,2.61,0,0,0-2.21-.59,2.67,2.67,0,0,0-2,1.07,3.45,3.45,0,0,0-.44,2.4q.68,5.75,1.36,11.49A3.49,3.49,0,0,0,98.14,94.56Z" transform="translate(-0.43 -18.28)"/><path class="cls-3" d="M110.74,75.26a5.31,5.31,0,0,1,3.93-1.86,5.4,5.4,0,0,1,4.23,1.08,5.66,5.66,0,0,1,1.75,3.9l1,11.28a5.71,5.71,0,0,1-1,4.14,6.19,6.19,0,0,1-7.95.75,5.69,5.69,0,0,1-1.77-3.88l-1.14-11.26A5.64,5.64,0,0,1,110.74,75.26Zm3.68,17.55a2.62,2.62,0,0,0,2.15.61c1.84-.17,2.67-1.31,2.47-3.4L118,78.49a3.46,3.46,0,0,0-.91-2.25,3.12,3.12,0,0,0-4.23.4,3.49,3.49,0,0,0-.49,2.39l1.14,11.51A3.55,3.55,0,0,0,114.42,92.81Z" transform="translate(-0.43 -18.28)"/><path class="cls-3" d="M129.77,74.55l-4.39.35-.18-2.21q5.73-.48,11.47-.87l.15,2.22-4.39.31L133.87,94l-2.59.2Q130.53,84.36,129.77,74.55Z" transform="translate(-0.43 -18.28)"/><path class="cls-3" d="M151.32,72.14a4.87,4.87,0,0,1,1.41,3.59c0,.35,0,.69.05,1a5.5,5.5,0,0,1-.5,2.89,3.53,3.53,0,0,1-2.05,1.59c2.14.43,3.28,1.94,3.4,4.52l.09,1.85a5.18,5.18,0,0,1-1.13,3.87A5.51,5.51,0,0,1,148.65,93l-5.36.31q-.67-10.92-1.36-21.85c1.79-.11,3.58-.22,5.37-.31A5.48,5.48,0,0,1,151.32,72.14Zm-1.77,7.58a2.84,2.84,0,0,0,.65-2.32c0-.43,0-.86-.07-1.28A3.26,3.26,0,0,0,149.4,74a2.5,2.5,0,0,0-2.05-.59l-2.62.15c.14,2.35.27,4.7.41,7l2-.11A3.87,3.87,0,0,0,149.55,79.72Zm1,10.25a3.24,3.24,0,0,0,.55-2.29c0-.64-.07-1.29-.1-1.93a3.4,3.4,0,0,0-.91-2.48,3.57,3.57,0,0,0-2.56-.59l-2.3.13.48,8.15,2.77-.16A2.77,2.77,0,0,0,150.59,90Z" transform="translate(-0.43 -18.28)"/><path class="cls-3" d="M161.4,92.41l-2.4.1q1.77-11,3.65-22.06l3.86-.13q2.66,10.86,5.18,21.75l-2.6.07c-.34-1.46-.69-2.92-1-4.38-2,.06-4,.13-5.92.21C161.88,89.45,161.64,90.93,161.4,92.41Zm6.22-6.73q-1.53-6.27-3.1-12.54-1.08,6.36-2.14,12.72C164.13,85.8,165.87,85.73,167.62,85.68Z" transform="translate(-0.43 -18.28)"/><path class="cls-3" d="M176.61,70.05l2.66,0q.18,9.84.34,19.67,3.34-.06,6.69-.09c0,.74,0,1.48,0,2.22q-4.63,0-9.27.14Q176.83,81,176.61,70.05Z" transform="translate(-0.43 -18.28)"/><path class="cls-3" d="M191.56,69.88h2.67q0,9.84,0,19.68l6.68,0c0,.74,0,1.48,0,2.22q-4.63,0-9.26,0Z" transform="translate(-0.43 -18.28)"/><path class="cls-3" d="M215.24,70.15l2.66.07q-.28,9.84-.56,19.67,3.33.09,6.68.22l-.08,2.21c-3.09-.11-6.18-.21-9.26-.28Q215,81.09,215.24,70.15Z" transform="translate(-0.43 -18.28)"/><path class="cls-3" d="M238.06,83c-1.92-.11-3.84-.2-5.77-.29l-.36,7.78c2.34.11,4.68.22,7,.35L238.82,93c-3.2-.18-6.39-.33-9.59-.47q.48-10.94,1-21.88c3.28.15,6.57.31,9.85.49,0,.74-.08,1.48-.13,2.22-2.38-.13-4.77-.26-7.16-.37-.11,2.49-.23,5-.34,7.47l5.77.29C238.14,81.49,238.1,82.22,238.06,83Z" transform="translate(-0.43 -18.28)"/><path class="cls-3" d="M246.27,93.46l-2.39-.15q2.9-10.8,5.92-21.56c1.29.08,2.57.17,3.86.27q1.5,11.07,2.89,22.16L254,94c-.19-1.49-.39-3-.58-4.47l-5.92-.41C247.06,90.56,246.67,92,246.27,93.46Zm6.89-6q-.87-6.41-1.77-12.8-1.75,6.23-3.46,12.44C249.68,87.16,251.42,87.28,253.16,87.41Z" transform="translate(-0.43 -18.28)"/><path class="cls-3" d="M272.81,74.86a5.74,5.74,0,0,1,.95,4.15l-.18,1.87-2.5-.24c.06-.67.13-1.33.19-2,.19-2.1-.64-3.24-2.5-3.4a2.58,2.58,0,0,0-2.16.63,3.48,3.48,0,0,0-.9,2.27q-.51,5.76-1,11.52a3.55,3.55,0,0,0,.48,2.39,2.53,2.53,0,0,0,2,1q2.73.25,3-2.89c.14-1.45.27-2.91.41-4.36l-2.42-.22c.07-.73.13-1.46.2-2.18,1.64.14,3.28.3,4.92.46q-.32,3.19-.62,6.41a5.9,5.9,0,0,1-1.7,3.89,6.05,6.05,0,0,1-7.86-.71,5.85,5.85,0,0,1-1-4.13q.48-5.64.95-11.28a5.71,5.71,0,0,1,1.68-3.91A5.16,5.16,0,0,1,268.9,73,5.23,5.23,0,0,1,272.81,74.86Z" transform="translate(-0.43 -18.28)"/><path class="cls-3" d="M283.34,94.68a2.49,2.49,0,0,0,2.12-.58,3.55,3.55,0,0,0,.93-2.26l1.89-16.62,2.48.28L288.84,92a6,6,0,0,1-1.76,3.89,5.06,5.06,0,0,1-4.08,1,4.94,4.94,0,0,1-3.73-1.9,5.91,5.91,0,0,1-.88-4.16l1.71-16.52,2.62.28L281,91.24C280.73,93.34,281.52,94.48,283.34,94.68Z" transform="translate(-0.43 -18.28)"/><path class="cls-3" d="M303.67,89.1l-5.73-.75c-.33,2.58-.65,5.15-1,7.73,2.32.29,4.65.6,7,.91l-.3,2.2q-4.75-.64-9.53-1.24,1.33-10.86,2.69-21.72c3.26.4,6.53.83,9.79,1.27l-.3,2.2c-2.37-.32-4.75-.64-7.12-.94-.31,2.48-.63,4.95-.94,7.42,1.91.24,3.83.49,5.74.75C303.87,87.65,303.77,88.38,303.67,89.1Z" transform="translate(-0.43 -18.28)"/><polygon class="cls-2" points="120.59 99.82 123.12 107.62 131.32 107.62 124.69 112.44 127.22 120.25 120.59 115.42 113.95 120.25 116.49 112.44 109.85 107.62 118.05 107.62 120.59 99.82"/><polygon class="cls-2" points="266.09 99.82 268.62 107.62 276.82 107.62 270.19 112.44 272.72 120.25 266.09 115.42 259.45 120.25 261.99 112.44 255.35 107.62 263.55 107.62 266.09 99.82"/><path class="cls-2" d="M147.74,49.68,147.32,47l-3,.18L143.93,50l-2.22.17q1.23-7.78,2.47-15.4h3.54q1.23,7.49,2.45,14.8ZM147,45c-.39-2.51-.77-5-1.16-7.58q-.59,3.82-1.17,7.7Z" transform="translate(-0.43 -18.28)"/><path class="cls-2" d="M154.1,35.49a4.25,4.25,0,0,1,5.32,0,3.61,3.61,0,0,1,.9,2.64v.45l-2.29,0V38a1.57,1.57,0,0,0-.31-1.07,1.12,1.12,0,0,0-.9-.33,1.16,1.16,0,0,0-.91.34,1.65,1.65,0,0,0-.3,1.09,2.51,2.51,0,0,0,.51,1.58,9,9,0,0,0,1.55,1.51,17.09,17.09,0,0,1,1.38,1.27,4.75,4.75,0,0,1,.91,1.32,4.29,4.29,0,0,1,.37,1.8,3.75,3.75,0,0,1-.93,2.7,3.86,3.86,0,0,1-2.68,1.07A3.43,3.43,0,0,1,154,48.5a3.59,3.59,0,0,1-.92-2.67v-.9l2.29-.1v1c0,.94.42,1.38,1.25,1.34s1.26-.52,1.26-1.45a2.43,2.43,0,0,0-.52-1.56,9.35,9.35,0,0,0-1.55-1.49,17,17,0,0,1-1.38-1.28,5,5,0,0,1-.9-1.36,4.16,4.16,0,0,1-.37-1.85A3.84,3.84,0,0,1,154.1,35.49Z" transform="translate(-0.43 -18.28)"/><path class="cls-2" d="M164.53,35.46a3.58,3.58,0,0,1,2.66-.91,3.61,3.61,0,0,1,2.66.9,3.44,3.44,0,0,1,.9,2.56v.44l-2.29,0V37.9a1.5,1.5,0,0,0-.3-1,1.15,1.15,0,0,0-.91-.32,1.19,1.19,0,0,0-.9.33,1.53,1.53,0,0,0-.31,1.05,2.34,2.34,0,0,0,.52,1.53,9.78,9.78,0,0,0,1.55,1.47,15.75,15.75,0,0,1,1.38,1.23,4.78,4.78,0,0,1,.9,1.29,3.92,3.92,0,0,1,.38,1.75,3.56,3.56,0,0,1-.93,2.6,3.88,3.88,0,0,1-2.69,1,3.54,3.54,0,0,1-2.68-.8,3.39,3.39,0,0,1-.92-2.59v-.86l2.29-.07v1c0,.9.41,1.34,1.25,1.31s1.25-.49,1.26-1.39a2.36,2.36,0,0,0-.52-1.51,9.79,9.79,0,0,0-1.55-1.46,15.67,15.67,0,0,1-1.38-1.24,4.56,4.56,0,0,1-.91-1.31,4.19,4.19,0,0,1-.37-1.78A3.6,3.6,0,0,1,164.53,35.46Z" transform="translate(-0.43 -18.28)"/><path class="cls-2" d="M176.78,34.7q0,6.81,0,13.62l-2.42.06q0-6.84,0-13.68Z" transform="translate(-0.43 -18.28)"/><path class="cls-2" d="M187.76,40.65v4.26a3.3,3.3,0,0,1-.93,2.51,3.79,3.79,0,0,1-2.69.9,3.72,3.72,0,0,1-2.68-.83,3.24,3.24,0,0,1-.92-2.51V38a3.28,3.28,0,0,1,.93-2.52,3.72,3.72,0,0,1,2.68-.88,3.8,3.8,0,0,1,2.69.87,3.3,3.3,0,0,1,.92,2.5v1.31h-2.29V37.79c0-.88-.42-1.32-1.25-1.32S183,36.92,183,37.8v7.29c0,.87.42,1.3,1.25,1.29a1.15,1.15,0,0,0,1.26-1.32V42.58h-1.1V40.66Z" transform="translate(-0.43 -18.28)"/><path class="cls-2" d="M193.68,48.1H191.5V34.7h3q1.23,4,2.48,8v-8h2.16V48.12h-2.49q-1.5-4.86-3-9.71Z" transform="translate(-0.43 -18.28)"/><path class="cls-2" d="M209.89,34.7h3.37q0,6.84,0,13.68L211,48.32c0-3.26,0-6.51,0-9.77-.55,3.26-1.11,6.5-1.66,9.73L207,48.23c-.6-3.2-1.21-6.39-1.81-9.58V48.2l-2.11,0q0-6.72,0-13.46h3.37c.6,3.2,1.19,6.41,1.79,9.63C208.8,41.13,209.34,37.92,209.89,34.7Z" transform="translate(-0.43 -18.28)"/><path class="cls-2" d="M223,40.62v2l-3.32-.07v4.06l4.18.15v2c-2.2-.1-4.4-.18-6.6-.26q0-6.9,0-13.8h6.6v2l-4.18,0v3.87Z" transform="translate(-0.43 -18.28)"/><path class="cls-2" d="M229.68,49.06,227.51,49q0-7.12,0-14.24h3q1.25,4.31,2.49,8.7,0-4.35,0-8.7h2.16q0,7.32,0,14.66l-2.48-.15q-1.51-5.34-3-10.56C229.68,42.13,229.68,45.6,229.68,49.06Z" transform="translate(-0.43 -18.28)"/><path class="cls-2" d="M245.88,34.72v2.2l-2.53,0q0,6.53,0,13l-2.42-.17q0-6.45,0-12.89l-2.53,0V34.72Z" transform="translate(-0.43 -18.28)"/></svg>